<svg xmlns="http://www.w3.org/2000/svg" xmlns:xlink="http://www.w3.org/1999/xlink" width="500" zoomAndPan="magnify" viewBox="0 0 375 374.999991" height="500" preserveAspectRatio="xMidYMid meet" version="1.0"><defs><clipPath id="fc70f10a67"><path d="M 155.167969 183.382812 L 262.417969 183.382812 L 262.417969 290.632812 L 155.167969 290.632812 Z M 155.167969 183.382812 " clip-rule="nonzero"/></clipPath></defs><g clip-path="url(#fc70f10a67)"><path fill="#f5ffff" d="M 132.320312 163.457031 L 282.320312 163.457031 L 282.320312 313.457031 L 132.320312 313.457031 Z M 132.320312 163.457031 " fill-opacity="1" fill-rule="nonzero"/></g><path fill="#297de8" d="M 179.878906 236.042969 C 180.097656 236.039062 180.320312 236.039062 180.539062 236.042969 L 180.910156 236.042969 C 181.320312 236.039062 181.726562 236.042969 182.136719 236.046875 C 182.429688 236.046875 182.722656 236.046875 183.015625 236.046875 C 183.8125 236.046875 184.609375 236.050781 185.40625 236.054688 C 186.238281 236.058594 187.070312 236.058594 187.898438 236.058594 C 189.476562 236.0625 191.050781 236.066406 192.625 236.070312 C 194.421875 236.078125 196.214844 236.082031 198.007812 236.085938 C 201.699219 236.089844 205.386719 236.101562 209.078125 236.113281 L 209.078125 236.40625 L 209.398438 236.433594 C 209.808594 236.554688 209.808594 236.554688 210.203125 236.910156 L 210.542969 237.285156 L 210.835938 237.578125 C 211.417969 238.855469 211.335938 240.179688 211.332031 241.550781 C 211.332031 241.820312 211.332031 242.089844 211.332031 242.359375 C 211.335938 243.085938 211.335938 243.816406 211.332031 244.542969 C 211.332031 245.304688 211.332031 246.066406 211.332031 246.828125 C 211.335938 248.109375 211.332031 249.386719 211.332031 250.667969 C 211.328125 252.148438 211.328125 253.625 211.332031 255.105469 C 211.335938 256.375 211.335938 257.648438 211.332031 258.917969 C 211.332031 259.675781 211.332031 260.4375 211.335938 261.195312 C 211.335938 261.90625 211.335938 262.621094 211.332031 263.332031 C 211.332031 263.59375 211.332031 263.855469 211.332031 264.117188 C 211.332031 264.476562 211.332031 264.832031 211.328125 265.1875 L 211.332031 265.503906 C 211.328125 265.953125 211.296875 266.25 211.070312 266.644531 C 210.835938 266.875 210.835938 266.875 210.542969 267 C 210.179688 267.054688 209.882812 267.066406 209.515625 267.023438 C 209.238281 266.839844 209.238281 266.839844 208.96875 266.589844 L 208.664062 266.304688 L 208.34375 265.996094 L 208.03125 265.695312 C 207.691406 265.367188 207.359375 265.039062 207.027344 264.707031 L 206.65625 264.339844 C 206.402344 264.085938 206.144531 263.832031 205.886719 263.574219 C 205.5 263.1875 205.109375 262.804688 204.722656 262.417969 C 202.625 260.339844 200.996094 258.496094 200.160156 255.605469 C 199.703125 253.542969 200.0625 251.574219 200.671875 249.585938 C 201.355469 247.503906 202.660156 245.835938 203.953125 244.097656 C 204.59375 243.226562 205.15625 242.320312 205.707031 241.386719 L 206.148438 240.65625 C 205.609375 241.058594 205.210938 241.46875 204.800781 242 C 203.332031 243.820312 201.472656 245.113281 199.425781 246.210938 L 199.117188 246.378906 C 198.488281 246.707031 197.894531 246.921875 197.210938 247.101562 L 196.917969 247.246094 C 196.640625 247.300781 196.359375 247.347656 196.078125 247.394531 L 195.621094 247.464844 L 195.160156 247.539062 L 194.742188 247.621094 C 192.878906 247.890625 191.074219 247.707031 189.300781 247.101562 C 186.847656 246.082031 185.050781 244.339844 183.203125 242.488281 C 182.972656 242.257812 182.742188 242.027344 182.511719 241.796875 C 181.792969 241.078125 181.089844 240.347656 180.425781 239.574219 C 180.164062 239.273438 179.886719 238.996094 179.597656 238.722656 C 178.816406 237.949219 178.816406 237.949219 178.609375 237.433594 C 178.617188 237.058594 178.617188 237.058594 178.753906 236.699219 C 179.105469 236.21875 179.277344 236.121094 179.878906 236.042969 M 196.753906 214.066406 C 196.992188 214.066406 197.226562 214.066406 197.464844 214.066406 L 197.859375 214.066406 C 198.296875 214.0625 198.734375 214.066406 199.175781 214.066406 C 199.488281 214.066406 199.800781 214.066406 200.117188 214.066406 C 200.96875 214.0625 201.820312 214.066406 202.675781 214.066406 C 203.570312 214.070312 204.460938 214.070312 205.355469 214.066406 C 206.855469 214.066406 208.355469 214.070312 209.855469 214.074219 C 211.589844 214.078125 213.324219 214.078125 215.054688 214.074219 C 216.722656 214.074219 218.390625 214.074219 220.058594 214.078125 C 220.769531 214.078125 221.480469 214.078125 222.1875 214.078125 C 223.023438 214.078125 223.863281 214.078125 224.699219 214.082031 C 225.003906 214.082031 225.3125 214.082031 225.617188 214.082031 C 226.035156 214.082031 226.457031 214.082031 226.875 214.085938 L 227.242188 214.082031 C 228.121094 214.089844 228.90625 214.269531 229.730469 214.582031 C 230.109375 214.808594 230.109375 214.808594 230.371094 215.046875 L 230.640625 215.28125 C 231.074219 215.816406 231.421875 216.402344 231.542969 217.085938 C 231.5625 217.414062 231.566406 217.742188 231.5625 218.070312 L 231.566406 218.449219 C 231.570312 218.867188 231.566406 219.28125 231.566406 219.699219 C 231.566406 219.996094 231.566406 220.296875 231.566406 220.597656 C 231.570312 221.40625 231.570312 222.21875 231.566406 223.03125 C 231.566406 223.878906 231.566406 224.726562 231.570312 225.578125 C 231.570312 227.003906 231.570312 228.425781 231.566406 229.851562 C 231.5625 231.5 231.5625 233.148438 231.566406 234.796875 C 231.570312 236.210938 231.570312 237.628906 231.566406 239.042969 C 231.566406 239.886719 231.566406 240.734375 231.570312 241.578125 C 231.570312 242.371094 231.570312 243.164062 231.566406 243.960938 C 231.566406 244.25 231.566406 244.542969 231.566406 244.835938 C 231.566406 245.234375 231.566406 245.628906 231.5625 246.027344 L 231.566406 246.378906 C 231.5625 246.703125 231.5625 246.703125 231.488281 247.246094 C 231.21875 247.605469 231.21875 247.605469 230.902344 247.832031 C 230.46875 247.976562 230.46875 247.976562 230.023438 247.980469 C 229.667969 247.757812 229.667969 247.757812 229.328125 247.421875 L 228.945312 247.054688 L 228.558594 246.660156 L 228.179688 246.28125 C 227.933594 246.035156 227.6875 245.789062 227.445312 245.539062 C 227.125 245.226562 226.800781 244.933594 226.460938 244.648438 C 225.976562 244.226562 225.582031 243.800781 225.191406 243.292969 L 225 243.050781 L 224.804688 242.796875 L 224.636719 242.574219 C 224.136719 241.707031 223.96875 240.945312 223.960938 239.957031 L 223.964844 239.527344 L 223.960938 239.066406 C 223.960938 238.734375 223.960938 238.40625 223.960938 238.078125 C 223.964844 237.554688 223.960938 237.03125 223.960938 236.511719 C 223.953125 235.027344 223.953125 233.542969 223.953125 232.058594 C 223.953125 231.148438 223.953125 230.238281 223.945312 229.328125 C 223.945312 228.816406 223.949219 228.300781 223.949219 227.789062 L 223.945312 226.839844 L 223.949219 226.410156 C 223.941406 225.613281 223.828125 225.039062 223.441406 224.339844 C 223.214844 223.996094 222.957031 223.730469 222.644531 223.460938 L 222.320312 223.175781 C 221.898438 222.882812 221.589844 222.765625 221.089844 222.636719 C 220.523438 222.59375 219.960938 222.597656 219.394531 222.597656 L 218.882812 222.59375 C 218.515625 222.59375 218.148438 222.59375 217.78125 222.59375 C 217.199219 222.59375 216.617188 222.589844 216.035156 222.585938 C 214.589844 222.578125 213.144531 222.574219 211.699219 222.570312 C 210.574219 222.570312 209.453125 222.566406 208.328125 222.558594 C 207.84375 222.558594 207.363281 222.554688 206.878906 222.554688 C 206.339844 222.554688 205.800781 222.554688 205.261719 222.550781 L 204.78125 222.550781 C 203.492188 222.539062 202.375 222.246094 201.257812 221.59375 C 200.316406 220.917969 199.503906 220.078125 198.675781 219.269531 L 198.375 218.976562 C 198.082031 218.691406 197.789062 218.402344 197.496094 218.113281 L 197.226562 217.851562 C 196.628906 217.253906 196.03125 216.628906 195.601562 215.898438 C 195.492188 215.445312 195.519531 215.203125 195.601562 214.726562 C 195.945312 214.21875 196.136719 214.148438 196.753906 214.066406 " fill-opacity="1" fill-rule="nonzero"/><path fill="#4da5f1" d="M 189.777344 225.253906 L 190.148438 225.253906 C 190.5625 225.253906 190.976562 225.253906 191.386719 225.253906 L 192.273438 225.25 C 193.078125 225.25 193.878906 225.25 194.683594 225.25 C 195.355469 225.25 196.023438 225.25 196.695312 225.25 C 198.277344 225.246094 199.859375 225.246094 201.441406 225.246094 C 203.074219 225.246094 204.707031 225.246094 206.335938 225.242188 C 207.738281 225.242188 209.140625 225.242188 210.539062 225.242188 C 211.375 225.242188 212.214844 225.238281 213.050781 225.238281 C 213.835938 225.238281 214.625 225.238281 215.414062 225.238281 C 215.699219 225.238281 215.988281 225.238281 216.277344 225.238281 C 216.671875 225.234375 217.066406 225.238281 217.460938 225.238281 L 217.804688 225.234375 C 218.554688 225.242188 219.199219 225.351562 219.917969 225.566406 C 220.238281 225.761719 220.238281 225.761719 220.476562 225.980469 L 220.714844 226.191406 C 221 226.511719 221.191406 226.792969 221.382812 227.179688 C 221.421875 227.582031 221.441406 227.953125 221.4375 228.359375 L 221.441406 228.71875 C 221.441406 229.113281 221.441406 229.507812 221.4375 229.902344 C 221.4375 230.1875 221.441406 230.472656 221.441406 230.753906 C 221.441406 231.523438 221.441406 232.296875 221.441406 233.066406 C 221.441406 233.871094 221.441406 234.675781 221.441406 235.480469 C 221.441406 236.835938 221.441406 238.1875 221.4375 239.539062 C 221.4375 241.101562 221.4375 242.667969 221.441406 244.234375 C 221.441406 245.574219 221.441406 246.917969 221.441406 248.261719 C 221.441406 249.0625 221.441406 249.867188 221.441406 250.667969 C 221.441406 251.421875 221.441406 252.175781 221.4375 252.929688 C 221.4375 253.207031 221.4375 253.484375 221.441406 253.761719 C 221.441406 254.136719 221.441406 254.515625 221.4375 254.890625 L 221.441406 255.226562 C 221.4375 255.53125 221.4375 255.53125 221.382812 256.035156 C 221.175781 256.320312 221.175781 256.320312 220.941406 256.476562 C 220.609375 256.574219 220.335938 256.574219 219.988281 256.566406 C 219.523438 256.449219 219.285156 256.25 218.929688 255.933594 C 218.71875 255.726562 218.507812 255.515625 218.304688 255.304688 C 217.910156 254.90625 217.515625 254.511719 217.117188 254.117188 C 214.652344 251.679688 214.652344 251.679688 214.203125 250.324219 C 213.964844 249.4375 213.871094 248.609375 213.878906 247.695312 L 213.878906 247.320312 C 213.878906 247.054688 213.878906 246.789062 213.878906 246.523438 C 213.882812 246.101562 213.878906 245.679688 213.878906 245.257812 C 213.875 244.058594 213.875 242.859375 213.878906 241.660156 C 213.878906 240.921875 213.878906 240.1875 213.875 239.453125 C 213.871094 239.171875 213.875 238.894531 213.875 238.617188 C 213.914062 237.089844 213.914062 237.089844 213.578125 235.625 C 213.160156 234.910156 212.6875 234.378906 212.007812 233.917969 C 211.300781 233.535156 210.59375 233.582031 209.8125 233.585938 L 209.367188 233.585938 C 209.046875 233.582031 208.730469 233.582031 208.410156 233.582031 C 207.90625 233.582031 207.398438 233.582031 206.894531 233.578125 C 205.457031 233.574219 204.015625 233.570312 202.578125 233.566406 C 201.699219 233.566406 200.820312 233.5625 199.9375 233.558594 C 199.605469 233.558594 199.269531 233.554688 198.9375 233.558594 C 195.070312 233.566406 195.070312 233.566406 193.433594 232.667969 C 191.605469 231.5 190.027344 229.640625 188.632812 228 C 188.414062 227.742188 188.414062 227.742188 188.074219 227.480469 C 187.835938 227.179688 187.835938 227.179688 187.757812 226.867188 C 187.710938 226.519531 187.671875 226.207031 187.691406 225.859375 L 187.984375 225.421875 C 188.5625 225.210938 189.167969 225.253906 189.777344 225.253906 " fill-opacity="1" fill-rule="nonzero"/><path fill="#467fcb" d="M 200.289062 251.203125 L 200.433594 251.203125 L 200.433594 255.304688 L 200.140625 255.449219 C 199.808594 254.0625 199.90625 252.566406 200.289062 251.203125 M 190.621094 247.246094 L 195.160156 247.246094 L 195.160156 247.539062 C 194.425781 247.6875 193.71875 247.714844 192.972656 247.714844 L 192.628906 247.71875 C 191.902344 247.722656 191.308594 247.625 190.621094 247.394531 Z M 190.621094 247.246094 " fill-opacity="1" fill-rule="nonzero"/><path fill="#306dd0" d="M 204.683594 243.144531 L 204.976562 243.4375 L 204.691406 243.769531 C 203.976562 244.617188 203.300781 245.464844 202.6875 246.386719 C 202.484375 246.660156 202.484375 246.660156 202.191406 246.808594 C 202.835938 245.464844 203.730469 244.285156 204.683594 243.144531 M 202.046875 246.808594 L 202.191406 247.246094 L 201.898438 247.246094 Z M 183.734375 242.414062 L 184.046875 242.726562 C 184.328125 243.007812 184.609375 243.285156 184.890625 243.558594 L 185.320312 243.976562 L 185.542969 244.195312 C 185.726562 244.375 185.902344 244.566406 186.078125 244.757812 L 186.078125 245.050781 C 185.648438 244.855469 185.347656 244.648438 185.019531 244.3125 L 184.765625 244.054688 L 184.503906 243.785156 L 184.238281 243.515625 C 184.019531 243.292969 183.804688 243.074219 183.589844 242.851562 Z M 181.390625 240.507812 L 182.125 240.800781 L 182.125 241.09375 L 182.5625 241.242188 L 182.5625 241.535156 L 183.003906 241.535156 L 183.003906 241.972656 L 183.441406 242.121094 L 183.441406 242.414062 C 182.875 242.179688 182.515625 241.8125 182.085938 241.378906 L 181.691406 240.980469 L 181.390625 240.65625 Z M 207.027344 264.53125 C 207.589844 264.761719 207.933594 265.121094 208.355469 265.558594 C 208.734375 265.949219 209.0625 266.277344 209.515625 266.582031 L 209.515625 266.875 C 209.089844 266.683594 208.785156 266.476562 208.457031 266.144531 L 208.203125 265.886719 L 207.941406 265.621094 L 207.675781 265.355469 C 207.457031 265.132812 207.238281 264.90625 207.027344 264.679688 Z M 205.855469 240.214844 C 206.136719 240.261719 206.136719 240.261719 206.441406 240.363281 L 206.585938 240.800781 C 206.441406 241.070312 206.441406 241.070312 206.230469 241.339844 L 206.019531 241.617188 L 205.855469 241.828125 L 205.5625 241.679688 L 206.148438 240.65625 L 205.855469 240.65625 Z M 179.046875 236.261719 L 179.632812 236.554688 L 179.433594 236.738281 C 179.183594 237.003906 179.046875 237.25 178.902344 237.578125 L 178.609375 237.433594 C 178.6875 236.9375 178.761719 236.6875 179.046875 236.261719 " fill-opacity="1" fill-rule="nonzero"/><path fill="#306dd0" d="M 185.199219 244.023438 C 185.5 244.261719 185.792969 244.503906 186.078125 244.757812 L 186.078125 245.050781 C 185.699219 244.890625 185.5 244.765625 185.238281 244.445312 L 185.054688 244.171875 Z M 204.683594 243.144531 L 204.976562 243.4375 L 204.097656 244.171875 C 204.253906 243.742188 204.355469 243.46875 204.683594 243.144531 " fill-opacity="1" fill-rule="nonzero"/><path fill="#306dd0" d="M 184.46875 243.4375 C 184.75 243.558594 184.75 243.558594 185.054688 243.730469 L 185.199219 244.171875 C 184.917969 244.050781 184.917969 244.050781 184.613281 243.878906 Z M 201.605469 247.539062 L 201.753906 247.539062 L 201.753906 248.273438 L 201.3125 248.417969 Z M 201.605469 247.539062 " fill-opacity="1" fill-rule="nonzero"/><path fill="#467fcb" d="M 222.554688 222.929688 L 222.699219 223.222656 L 223.140625 223.371094 L 222.992188 223.808594 L 222.40625 223.078125 Z M 230.171875 215.019531 L 230.902344 215.753906 L 230.316406 215.605469 Z M 197.210938 246.808594 L 197.210938 247.101562 L 196.480469 247.246094 L 196.480469 246.953125 C 196.773438 246.808594 196.773438 246.808594 197.210938 246.808594 M 181.390625 240.507812 L 182.125 240.800781 L 181.976562 241.242188 Z M 181.390625 240.507812 " fill-opacity="1" fill-rule="nonzero"/><path fill="#4da5f1" d="M 187.984375 225.421875 L 188.421875 225.566406 L 187.691406 226.152344 Z M 187.984375 225.421875 " fill-opacity="1" fill-rule="nonzero"/><path fill="#467fcb" d="M 196.625 217.070312 L 197.359375 217.363281 L 197.210938 217.804688 Z M 210.980469 266.144531 L 211.273438 266.289062 L 210.6875 266.875 C 210.734375 266.679688 210.78125 266.484375 210.835938 266.289062 Z M 210.980469 266.144531 " fill-opacity="1" fill-rule="nonzero"/><path fill="#306dd0" d="M 178.902344 237.433594 L 179.339844 237.726562 L 179.195312 238.164062 L 178.753906 237.578125 Z M 178.902344 237.433594 " fill-opacity="1" fill-rule="nonzero"/><path fill="#467fcb" d="M 206.148438 263.652344 L 206.734375 263.800781 L 206.585938 264.238281 Z M 203.804688 261.308594 L 204.390625 261.457031 L 204.242188 261.894531 Z M 203.804688 261.308594 " fill-opacity="1" fill-rule="nonzero"/><path fill="#306dd0" d="M 187.398438 245.929688 C 187.679688 245.984375 187.679688 245.984375 187.984375 246.074219 L 188.128906 246.367188 C 187.847656 246.3125 187.847656 246.3125 187.542969 246.222656 Z M 184.175781 243 L 184.613281 243.4375 L 184.175781 243.4375 Z M 184.175781 243 " fill-opacity="1" fill-rule="nonzero"/><path fill="#467fcb" d="M 224.457031 241.972656 L 224.898438 242.121094 L 224.75 242.558594 Z M 224.457031 241.972656 " fill-opacity="1" fill-rule="nonzero"/><path fill="#4da5f1" d="M 213.03125 234.648438 L 213.472656 234.796875 L 213.324219 235.234375 Z M 192.816406 232.011719 L 193.402344 232.160156 L 193.402344 232.453125 L 192.816406 232.160156 Z M 192.816406 232.011719 " fill-opacity="1" fill-rule="nonzero"/><path fill="#467fcb" d="M 223.578125 224.394531 L 224.019531 224.542969 L 223.871094 224.980469 Z M 200.726562 221.027344 L 201.3125 221.171875 L 201.3125 221.464844 L 200.726562 221.171875 Z M 231.050781 247.246094 L 231.34375 247.246094 L 231.195312 247.6875 L 230.902344 247.6875 Z M 231.050781 247.246094 " fill-opacity="1" fill-rule="nonzero"/><path fill="#297de8" d="M 183.441406 242.265625 L 183.734375 242.558594 L 183.296875 242.558594 Z M 183.441406 242.265625 " fill-opacity="1" fill-rule="nonzero"/></svg>